<?xml version="1.0" encoding="UTF-8" standalone="no"?>
<!-- Created with Inkscape (http://www.inkscape.org/) -->

<svg
   xmlns:dc="http://purl.org/dc/elements/1.1/"
   xmlns:cc="http://creativecommons.org/ns#"
   xmlns:rdf="http://www.w3.org/1999/02/22-rdf-syntax-ns#"
   xmlns:svg="http://www.w3.org/2000/svg"
   xmlns="http://www.w3.org/2000/svg"
   xmlns:sodipodi="http://sodipodi.sourceforge.net/DTD/sodipodi-0.dtd"
   xmlns:inkscape="http://www.inkscape.org/namespaces/inkscape"
   width="51.839977mm"
   height="61.843868mm"
   viewBox="0 0 51.839977 61.843868"
   version="1.1"
   id="svg4517"
   inkscape:version="0.92.1 r"
   sodipodi:docname="anacleto.svg">
  <defs
     id="defs4511" />
  <sodipodi:namedview
     id="base"
     pagecolor="#ffffff"
     bordercolor="#666666"
     borderopacity="1.0"
     inkscape:pageopacity="0.0"
     inkscape:pageshadow="2"
     inkscape:zoom="0.35"
     inkscape:cx="383.6796"
     inkscape:cy="-317.4154"
     inkscape:document-units="mm"
     inkscape:current-layer="layer1"
     showgrid="false"
     fit-margin-top="0"
     fit-margin-left="0"
     fit-margin-right="0"
     fit-margin-bottom="0"
     inkscape:window-width="1353"
     inkscape:window-height="992"
     inkscape:window-x="9"
     inkscape:window-y="21"
     inkscape:window-maximized="0" />
  <metadata
     id="metadata4514">
    <rdf:RDF>
      <cc:Work
         rdf:about="">
        <dc:format>image/svg+xml</dc:format>
        <dc:type
           rdf:resource="http://purl.org/dc/dcmitype/StillImage" />
        <dc:title></dc:title>
      </cc:Work>
    </rdf:RDF>
  </metadata>
  <g
     inkscape:label="Layer 1"
     inkscape:groupmode="layer"
     id="layer1"
     transform="translate(-4.3181065,-3.00664)">
    <g
       id="g8198"
       transform="translate(-43.984281,-112.86539)"
       inkscape:export-xdpi="381.89999"
       inkscape:export-ydpi="381.89999">
      <path
         style="fill:#050404;stroke-width:0.26458335"
         d="m 66.360164,177.18208 c -0.393476,-0.56176 -0.657771,-0.57315 -2.192661,-0.0945 -0.438073,0.13661 -0.679704,0.0156 -1.027059,-0.51459 -0.42572,-0.64973 -0.4263,-0.72406 -0.0092,-1.18493 0.244745,-0.27044 0.977879,-0.64091 1.629187,-0.82326 0.651309,-0.18236 1.247688,-0.43429 1.325288,-0.55984 0.218884,-0.35417 -0.785392,-0.26943 -1.792121,0.15121 -1.133105,0.47344 -6.446267,0.1684 -8.859162,-0.50863 -2.33187,-0.65428 -4.777936,-2.55291 -5.823955,-4.52053 -1.54429,-2.90489 -1.712544,-5.78606 -0.550825,-9.43229 l 0.566746,-1.77882 0.370941,0.98507 c 0.204017,0.54179 0.47018,1.61884 0.591472,2.39345 0.270634,1.72836 1.844465,5.35228 2.977975,6.64327 0.461922,0.52611 0.889326,0.68089 0.97097,0.68247 0.08164,0.002 0.879163,0.44854 1.772265,0.99323 1.970967,1.20207 3.085426,1.68104 4.768211,2.04924 0.704487,0.15415 1.672288,0.46244 2.150671,0.68509 0.943062,0.43893 1.94175,0.41298 2.095444,-0.0544 0.05727,-0.17418 -0.417769,-0.35365 -1.172773,-0.44306 -1.612144,-0.19094 -3.955719,-1.06923 -4.916959,-1.84271 -0.595909,-0.47951 -0.700044,-0.71487 -0.525296,-1.18726 l 0.217955,-0.58919 1.186755,0.78762 c 2.168726,1.43934 3.421703,1.71528 7.678754,1.69107 3.559717,-0.0202 3.953819,-0.0727 5.291666,-0.70438 1.149342,-0.54268 1.309979,-0.68787 0.784043,-0.70862 -0.527299,-0.0208 -0.580962,-0.0781 -0.264584,-0.28258 0.218282,-0.14107 0.71418,-0.25831 1.101993,-0.26054 1.462611,-0.008 4.13349,-4.10323 5.084233,-7.79483 0.333184,-1.29371 0.357394,-2.06901 0.136316,-4.36562 -0.147849,-1.53591 -0.199178,-3.26976 -0.114067,-3.85302 0.192233,-1.31733 -0.37456,-3.28805 -1.291379,-4.49006 -0.37607,-0.49306 -0.683762,-1.08131 -0.683762,-1.30724 0,-0.76572 2.031481,-1.83356 3.720671,-1.95574 1.457518,-0.10543 1.538298,-0.14592 1.274477,-0.63887 -0.203748,-0.38071 -0.196498,-0.60995 0.02619,-0.82864 0.231801,-0.22762 0.43399,-0.14798 0.818261,0.3223 0.664051,0.81269 0.647967,1.6824 -0.04268,2.30742 -0.52257,0.47292 -0.571587,0.47518 -0.889063,0.041 -0.340598,-0.4658 -1.364417,-0.58644 -2.467896,-0.29081 -0.619929,0.16609 -0.622596,0.29702 -0.03792,1.86085 0.266793,0.71359 1.08113,0.56797 1.444818,-0.25835 0.391835,-0.89027 1.089105,-0.86276 1.567233,0.0618 0.229695,0.44419 2.91758,1.36402 3.460285,1.64201 2.524963,1.88187 3.792219,2.56588 6.064551,4.29739 0.576575,0.45459 0.9451,0.64794 0.818944,0.42965 -0.587825,-1.01709 -2.524038,-3.6241 -3.028471,-4.07768 -0.309383,-0.27819 -0.733388,-0.84833 -0.942235,-1.26697 l -0.379719,-0.76117 1.062614,0.84161 c 1.263314,1.00056 2.762218,2.97264 3.90982,5.14406 0.457917,0.86645 0.776859,1.33724 0.708755,1.0462 -0.646377,-2.76236 -1.338395,-3.93705 -3.407804,-5.78472 -1.747137,-1.55993 -5.523437,-3.87258 -6.323497,-3.87258 -0.514109,0 -0.747183,-0.11463 -0.672423,-0.33072 0.06795,-0.19641 0.70055,-0.27232 0.94809,-0.24766 0.24754,0.0247 2.120553,0.20131 3.044272,0.6784 1.512994,0.78144 2.455264,2.02126 3.792363,3.42289 4.035537,4.06727 2.628364,4.18768 4.191029,8.78617 1.086573,3.15009 3.820309,11.34694 3.635529,12.05354 -0.0687,0.26261 -1.067589,0.94256 -2.279529,1.55166 -1.747589,0.87831 -2.534145,1.1139 -4.141661,1.2405 -1.758923,0.13852 -4.149817,-0.10791 -5.291666,-0.54542 -0.218282,-0.0836 -0.813594,0.10418 -1.322917,0.41738 l -0.926042,0.56945 0.908336,0.30862 c 1.134631,0.3855 1.583828,1.01991 1.177049,1.66238 -0.254431,0.40186 -0.74359,0.46302 -3.702812,0.46302 -3.337023,0 -3.449111,0.0191 -5.261739,0.89864 -1.710288,0.82984 -2.074903,0.90466 -4.7625,0.97718 -1.610887,0.0435 -3.269898,-0.0478 -3.715512,-0.20437 -0.667319,-0.23449 -0.993775,-0.18665 -1.907689,0.27959 -1.393459,0.71089 -2.048213,0.71068 -2.546566,-7.9e-4 z m 9.095808,-1.78707 c 0,-0.31678 -1.023427,-0.56597 -1.193601,-0.29062 -0.07469,0.12084 0.07402,0.27445 0.330467,0.34134 0.765233,0.19961 0.863134,0.19386 0.863134,-0.0507 z m 5.715352,-1.01828 c -0.196035,-0.19603 -2.007372,0.25038 -1.876319,0.46243 0.07163,0.11589 0.546738,0.0829 1.055793,-0.0733 0.509056,-0.15623 0.878293,-0.33132 0.820526,-0.38909 z m 6.028516,-0.0745 c -0.147519,-0.14752 -0.915472,-0.4025 -1.706563,-0.56662 -1.169381,-0.24261 -1.685726,-0.22355 -2.761263,0.10193 l -1.322917,0.40035 1.94378,0.0154 c 1.069078,0.008 2.011656,0.0833 2.094619,0.16628 0.08296,0.083 0.571524,0.15084 1.085699,0.15084 0.63168,0 0.847876,-0.087 0.666645,-0.26822 z m -12.802201,-0.26095 c 0,-0.14552 -0.565547,-0.24891 -1.256771,-0.22975 -1.227513,0.034 -1.235212,0.0394 -0.330729,0.22975 1.379035,0.29027 1.5875,0.29027 1.5875,0 z m 4.484711,-0.39222 c 0.611413,-0.21572 2.181829,-0.57789 3.48981,-0.80483 1.307983,-0.22694 2.919356,-0.6252 3.580831,-0.88503 l 1.202684,-0.47242 -1.38648,-1.03785 c -0.762563,-0.57083 -1.653707,-1.20872 -1.980319,-1.41754 -0.342677,-0.2191 -0.593841,-0.646 -0.593841,-1.00934 0,-0.34631 -0.296924,-0.94935 -0.659831,-1.34011 -0.557181,-0.59993 -1.082154,-1.7555 -1.705055,-3.75316 -0.07105,-0.22788 -0.391636,0.25781 -0.752853,1.14058 -0.913466,2.23241 -2.815193,4.76042 -4.285557,5.69689 -1.707869,1.08775 -2.654673,1.88077 -2.253996,1.88789 0.181901,0.003 0.330362,0.0952 0.329912,0.20433 -5.29e-4,0.10914 -1.631204,0.23305 -3.623898,0.27536 -3.378382,0.0717 -4.686617,0.34469 -4.12556,0.86079 0.115308,0.10607 0.996685,0.32602 1.958618,0.48877 1.439788,0.24361 1.948476,0.22553 2.877537,-0.10226 1.440711,-0.50831 3.280235,-0.51658 3.695178,-0.0166 0.287094,0.34593 0.966923,0.51445 2.559114,0.63441 0.309126,0.0233 1.062294,-0.13416 1.673706,-0.34988 z m -17.638329,-0.65469 c 0.114311,-0.10394 -0.719126,-0.45595 -1.852083,-0.78225 -5.51148,-1.58734 -8.446179,-4.68681 -9.058056,-9.56662 -0.151858,-1.2111 -0.379494,-2.30539 -0.505855,-2.43175 -0.355974,-0.35597 -0.830388,1.9407 -0.830388,4.01998 0,4.0963 2.288804,7.26767 6.042288,8.37222 2.7716,0.8156 5.543417,0.98914 6.204094,0.38842 z m 2.371847,0.34251 c -0.181901,-0.0734 -0.479557,-0.0734 -0.661458,0 -0.181901,0.0734 -0.03307,0.13346 0.330729,0.13346 0.363802,0 0.51263,-0.0601 0.330729,-0.13346 z m 31.593756,-2.36439 c 0.934111,-0.22431 2.195687,-0.8382 2.787147,-1.35624 0.357791,-0.31337 0.386818,-0.49058 0.144037,-0.87933 -0.241062,-0.38601 -0.213114,-0.58736 0.134903,-0.97192 0.403159,-0.44548 0.406207,-0.64628 0.03736,-2.46219 -0.220882,-1.08744 -0.617101,-2.39861 -0.880486,-2.91372 -0.263384,-0.51511 -0.559622,-1.30418 -0.658307,-1.75349 -0.09869,-0.44932 -0.589801,-1.27802 -1.091366,-1.84157 -0.501566,-0.56354 -0.912032,-1.18058 -0.912146,-1.37119 -2.65e-4,-0.63737 -2.724944,-3.2369 -4.650364,-4.43696 -1.047173,-0.65267 -2.959354,-1.61042 -4.249293,-2.12832 -1.289937,-0.51791 -2.712437,-1.16635 -3.16111,-1.44098 l -0.815768,-0.49933 -0.309565,1.34111 c -0.17026,0.7376 -0.238342,1.45634 -0.151294,1.59719 0.08705,0.14084 0.152667,2.30299 0.145825,4.80476 -0.01339,4.89317 0.25115,6.55438 1.446344,9.08259 1.325568,2.80398 2.41572,3.74792 5.791894,5.01511 1.274849,0.47848 1.986624,0.57605 3.614068,0.4954 1.11461,-0.0553 2.364766,-0.18166 2.778125,-0.28092 z m -36.800405,-1.01444 c -1.406351,-0.74321 -3.301442,-2.99067 -3.923345,-4.65286 -0.338398,-0.90445 -0.583492,-2.02488 -0.514399,-2.96376 l 0.02899,-1.51143 0.226614,1.15269 c 0.124637,0.63398 0.347171,1.29796 0.494519,1.4755 0.147349,0.17755 0.460817,0.78451 0.696596,1.34881 0.398416,0.95354 0.397783,1.00035 -0.009,0.66278 -0.401151,-0.33292 -0.409314,-0.29882 -0.09788,0.40892 0.186876,0.42467 0.499215,0.87188 0.694089,0.9938 0.194874,0.12191 0.572969,0.58121 0.840211,1.02065 0.267243,0.43945 1.054,1.2029 1.748349,1.69657 1.38851,0.98719 1.304215,1.15521 -0.184792,0.36833 z m 3.129794,-16.39524 c -0.186978,-0.48726 0.99889,-2.80271 2.046502,-3.99587 1.094682,-1.24677 1.736929,-1.58553 2.230078,-1.17625 0.591449,0.49086 0.449688,1.20234 -0.343059,1.72176 -0.962377,0.63058 -2.416326,2.19029 -2.882977,3.09269 -0.410945,0.79468 -0.828317,0.93678 -1.050544,0.35767 z m -6.600252,-3.6215 c -0.169662,-0.44213 -0.123182,-0.52159 1.392935,-2.38151 0.912388,-1.11928 1.682762,-1.28636 2.009168,-0.43576 0.17724,0.46188 -0.285186,1.13102 -0.781622,1.13102 -0.183529,0 -0.763953,0.47625 -1.289831,1.05833 -1.087469,1.2037 -1.106295,1.21258 -1.33065,0.62792 z m 6.362003,-3.79414 c -2.034124,-0.5764 -3.791846,-1.39747 -5.741845,-2.68214 -3.1605,-2.08214 -3.227587,-2.39463 -3.242302,-15.10233 -0.01107,-9.56129 -0.03833,-10.12155 -0.518223,-10.65226 -0.500339,-0.55331 -0.499191,-0.56798 0.09389,-1.19929 l 0.600424,-0.63912 2.116303,1.82877 c 1.163967,1.00582 2.731921,2.18098 3.484342,2.61148 2.436818,1.3942 9.954289,7.56579 9.954289,8.17213 0,0.12709 -0.240176,0.44842 -0.533725,0.71408 -0.519248,0.46991 -0.553342,0.46505 -1.256771,-0.17906 -0.397674,-0.36414 -1.707087,-1.3923 -2.909806,-2.2848 -1.202716,-0.89249 -2.644052,-1.99021 -3.202967,-2.43936 l -1.01621,-0.81665 -0.953957,0.56285 -0.953957,0.56284 0.362941,-0.74768 c 0.578108,-1.19094 0.149959,-3.18263 -0.882466,-4.1051 -0.953861,-0.85227 -1.843783,-0.94666 -2.645618,-0.28061 -0.457916,0.38038 -0.569408,0.80356 -0.624625,2.37084 -0.07597,2.15644 0.139587,2.53749 1.748324,3.09054 l 0.967271,0.33254 -1.192967,0.85672 -1.192967,0.85672 0.0077,2.43096 c 0.01329,4.18531 0.464411,8.99806 0.973496,10.38561 0.418987,1.14198 0.731433,1.47531 2.491038,2.6575 2.796462,1.8788 4.778555,2.35892 9.624623,2.33137 4.321487,-0.0245 6.815847,-0.58243 11.827481,-2.64523 4.030813,-1.65909 4.777031,-2.06081 5.981444,-3.22003 0.944575,-0.90913 1.045035,-1.1425 1.191474,-2.76775 0.175509,-1.94791 -0.255596,-3.90974 -1.197901,-5.45129 -0.294577,-0.48191 -1.086895,-1.98036 -1.760712,-3.32989 l -1.225119,-2.45371 0.595312,-0.87642 c 0.327422,-0.48203 0.595313,-0.7418 0.595313,-0.57727 0,0.16453 0.521827,1.40253 1.159615,2.75111 0.637787,1.34857 1.373463,3.04727 1.634832,3.77487 0.261368,0.72761 0.686752,1.63153 0.945295,2.00871 1.029163,1.50144 1.168736,5.89269 0.242314,7.62372 -0.707441,1.32187 -4.865455,3.64933 -8.555866,4.78918 -5.695561,1.75918 -13.938311,2.60213 -16.989732,1.73745 z m 12.318508,-5.34449 c -0.630947,-1.06937 -0.637715,-1.02223 0.183054,-1.27453 0.557179,-0.17127 0.595313,-0.10557 0.595313,1.02547 0,0.66465 -0.04777,1.20845 -0.106156,1.20845 -0.05839,0 -0.360881,-0.43172 -0.672211,-0.95939 z m -10.796699,-5.3011 c -0.204927,-0.0827 -0.269025,-0.37733 -0.168891,-0.7763 0.204086,-0.81315 -0.294143,-1.42988 -1.155142,-1.42988 -0.631002,0 -0.656823,-0.059 -0.527648,-1.20502 0.223851,-1.986 1.301716,-2.42402 3.382664,-1.37466 1.258683,0.63471 1.460063,1.05046 1.194503,2.46603 -0.308885,1.6465 -1.622821,2.76487 -2.725486,2.31983 z m 6.993361,-1.05524 c -0.35415,-0.35415 -0.173133,-1.40079 0.282226,-1.63183 0.254661,-0.12921 1.333595,-0.45592 2.397633,-0.72602 1.680326,-0.42654 1.96687,-0.44036 2.180034,-0.10511 0.13498,0.21229 0.18714,0.54455 0.115909,0.73835 -0.07123,0.1938 -0.129514,0.5716 -0.129514,0.83954 0,0.4079 -0.125851,0.36133 -0.773398,-0.28622 -1.226796,-1.22679 -2.922714,-0.95339 -3.565255,0.57476 -0.179763,0.42753 -0.408199,0.69596 -0.507635,0.59653 z m 8.550455,-3.33947 c -0.235453,-0.50676 -0.627761,-0.88709 -0.964536,-0.9351 -0.537498,-0.0766 -0.546973,-0.12239 -0.178337,-0.86134 0.741585,-1.48654 1.889427,-1.56601 2.78706,-0.19296 0.744434,1.13871 0.801291,1.73246 0.22143,2.31232 -0.775333,0.77533 -1.406057,0.66616 -1.865617,-0.32292 z m -3.118257,-4.45207 c -0.574022,-0.21687 -0.584677,-0.26723 -0.209865,-0.99203 0.21717,-0.41996 0.791625,-1.28543 1.276569,-1.92328 0.484947,-0.63784 1.679403,-2.2908 2.654351,-3.67325 2.28791,-3.2442 2.329494,-3.29433 3.052135,-3.67931 0.489011,-0.26052 0.702008,-0.25766 1.058333,0.0142 0.245362,0.18721 0.492562,0.37091 0.549339,0.40823 0.05678,0.0373 -0.387337,0.7176 -0.98692,1.51174 l -1.090147,1.44389 0.395619,1.1213 c 0.382812,1.08501 0.379827,1.10702 -0.09225,0.67979 -0.777484,-0.70361 -2.289387,-0.57218 -2.94054,0.25563 -0.614743,0.78152 -0.68975,1.45473 -0.253008,2.27079 0.249346,0.46591 0.228738,0.52632 -0.132291,0.38779 -0.687184,-0.2637 -1.208268,0.0792 -1.758061,1.15688 -0.623763,1.22268 -0.752653,1.30878 -1.523267,1.01763 z m -7.291446,-4.33605 c -0.586341,-0.58635 -1.306433,-2.9781 -1.120122,-3.72043 0.293989,-1.17134 1.475658,-0.60643 1.475658,0.70545 0,0.39556 0.06874,0.89832 0.15275,1.11726 0.129421,0.33726 0.230438,0.32036 0.661458,-0.11066 0.715216,-0.71521 1.347697,-0.63432 2.228501,0.28504 0.418253,0.43657 0.969282,0.79375 1.22451,0.79375 0.631386,0 0.874419,0.46921 0.485664,0.93764 -0.475652,0.57312 -1.238663,0.46914 -2.256994,-0.30758 -0.499613,-0.38107 -0.908389,-0.56817 -0.908389,-0.41577 0,0.3954 -0.765976,1.10863 -1.190625,1.10863 -0.197493,0 -0.536077,-0.177 -0.752411,-0.39333 z"
         id="path8200"
         inkscape:connector-curvature="0"
         sodipodi:nodetypes="ccccccccssccscccccccsscccccccscccscccccccssccccccccccssczacccsccccccsccccccsccsscccccccccccsccsccsssscccscccccccccsscsccccscccsscccccccccccccccccccccccssccccccccccccsccccccssccccscccccsccccccccccccccccsscsccccccsccccsccccssccsscccccssccscsccccscccccscccccccccccccccscccsccssc"
         inkscape:export-xdpi="381.89999"
         inkscape:export-ydpi="381.89999" />
      <path
         style="fill:#c59e54;stroke-width:0.26458335"
         d="m 58.360002,167.45151 c -8.416383,-1.26148 -3.699592,-22.16339 1.868445,-17.50294 1.530656,0.86101 1.410348,2.33609 1.294941,2.9372 -0.129212,0.64606 -0.05033,0.81498 0.472594,1.01198 0.51752,0.19497 0.685556,0.1291 0.957355,-0.37525 0.400897,-0.74392 1.188484,-1.02625 2.13683,-0.766 0.389681,0.10694 0.915131,0.21673 1.16767,0.24397 0.252537,0.0273 0.689547,0.25804 0.97113,0.51287 0.49009,0.44353 0.525055,0.43888 0.81811,-0.1087 0.168378,-0.31462 0.654103,-0.69333 1.079391,-0.84158 1.304674,-0.45482 0.864211,-0.68282 -1.05396,-0.54557 -1.004966,0.0719 -2.398543,0.0451 -3.096839,-0.0597 l -1.269627,-0.19039 1.392539,-1.28704 c 1.217031,-1.12482 1.356067,-1.35518 1.103154,-1.82775 -0.474681,-0.88695 -1.197975,-0.62609 -2.640555,0.95232 -1.430692,1.5654 -1.929691,1.6269 -1.929691,0.23783 0,-0.75386 0.732544,-1.73087 1.297779,-1.73087 0.203202,0 0.355867,-0.28376 0.355867,-0.66146 0,-0.53521 0.138864,-0.66932 0.727604,-0.70264 1.433846,-0.0812 6.205623,-0.0164 6.724466,0.12962 0.856747,0.24117 1.543763,1.27675 1.543763,1.97624 0,0.63941 0.02537,0.64664 1.632696,0.46479 0.897983,-0.1016 2.237436,-0.41457 2.976563,-0.6955 0.739127,-0.28093 1.418503,-0.51084 1.509723,-0.51092 0.09122,-7e-5 0.418642,0.58749 0.727604,1.30569 0.489259,4.1619 0.866327,6.42459 0.775274,7.75867 l 0.0068,4.29048 c -2.561658,8.10976 -6.902775,9.44193 -13.151221,9.26589 -6.024647,0.47516 -6.417601,-1.65446 -8.398405,-3.28124 z m 3.866804,-3.56523 c 0,-0.10499 -1.128604,-3.19773 -1.628738,-4.46327 -0.386547,-0.97812 -0.693129,-0.91633 -0.899025,0.18119 -0.209022,1.11418 0.23709,2.54798 1.118811,3.59584 0.548267,0.65158 1.408952,1.07078 1.408952,0.68624 z m 4.150545,-0.85537 c 0.332145,-0.0891 0.698476,-0.49886 0.859896,-0.96191 0.34749,-0.99681 0.359304,-0.87647 -0.134549,-1.37032 -0.730491,-0.73049 -1.113872,-0.48107 -1.414386,0.92016 -0.387762,1.80809 -0.434038,1.71325 0.689039,1.41207 z m 6.495748,-23.27208 c 0.09852,-0.0985 -0.0492,-0.3727 -0.32825,-0.60929 -0.746191,-0.63267 -2.380543,-3.68415 -2.380543,-4.4447 0,-0.37847 0.340569,-0.99696 0.804349,-1.46074 0.676151,-0.67615 0.93957,-0.77731 1.652728,-0.63468 1.345726,0.26915 1.840582,0.95953 1.937292,2.70277 0.04665,0.84094 0.153077,1.83973 0.236493,2.21953 0.08342,0.37979 0.03564,0.98097 -0.106159,1.33596 -0.141806,0.35499 -0.265375,0.54156 -0.274598,0.4146 -0.0092,-0.12696 -0.1656,-0.11568 -0.347501,0.0251 -0.399016,0.30875 -1.447655,0.70533 -1.193811,0.45148 z"
         id="path8204"
         inkscape:connector-curvature="0"
         sodipodi:nodetypes="cccccccccccccccssssccscscccccccscscccccccssccccccccc" />
      <path
         style="fill:#554a35;stroke-width:0.26458335"
         d="m 56.570848,174.95099 c -0.656779,-0.50149 -1.514853,-1.03373 -1.90683,-1.18276 -1.188432,-0.45184 -0.571813,-0.52854 0.828258,-0.10302 0.720815,0.21907 2.790922,0.50484 4.600239,0.63503 2.667175,0.19193 3.461832,0.16478 4.199499,-0.14343 1.008044,-0.42119 2.012703,-0.50625 1.793681,-0.15186 -0.0776,0.12555 -0.673978,0.37748 -1.325287,0.55984 -0.651309,0.18235 -1.384443,0.55282 -1.629188,0.82326 0.608394,0.99016 -3.292553,1.40691 -6.560372,-0.43706 z m 18.02199,0.49474 c -0.256445,-0.0669 -0.405154,-0.2205 -0.330467,-0.34134 0.170174,-0.27535 1.193601,-0.0262 1.193601,0.29062 0,0.24458 -0.0979,0.25033 -0.863134,0.0507 z m 13.764368,-0.9265 c 0.170411,-0.65165 -0.336745,-1.20161 -1.303998,-1.41406 -0.514925,-0.11309 -0.710322,-0.26736 -0.546347,-0.43134 7.612773,1.49438 14.375939,-3.844 7.717912,1.6714 1.178964,0.11821 -5.141761,1.04491 -5.867567,0.174 z m -9.062201,0.31966 c -0.131053,-0.21205 1.680284,-0.65846 1.876319,-0.46243 0.05777,0.0578 -0.31147,0.23286 -0.820526,0.3891 -0.509055,0.15623 -0.984162,0.18923 -1.055793,0.0733 z m 6.152491,-0.41959 c -0.08296,-0.083 -1.025541,-0.15779 -2.094619,-0.16628 l -1.94378,-0.0154 1.322917,-0.40035 c 1.075537,-0.32548 1.591882,-0.34454 2.761263,-0.10193 1.784043,0.37013 2.362907,0.83484 1.039918,0.83484 -0.514175,0 -1.002739,-0.0679 -1.085699,-0.15084 z m -12.637357,-0.37844 c -0.904483,-0.19039 -0.896784,-0.19573 0.330729,-0.22975 0.691224,-0.0192 1.256771,0.0842 1.256771,0.22975 0,0.29027 -0.208465,0.29027 -1.5875,0 z m 2.996266,-0.18993 c -0.462105,-0.0579 -0.9827,-0.27695 -1.156875,-0.48682 -0.415684,-0.50087 -2.255276,-0.49143 -3.701978,0.019 -0.917112,0.32358 -1.444837,0.34689 -2.745246,0.12124 -2.194874,-0.38085 -2.425573,-0.47341 -2.068869,-0.83011 0.187679,-0.18768 1.612045,-0.27793 4.012993,-0.25426 4.21324,0.15539 2.898989,-0.88233 5.937999,-2.8952 1.504448,-1.18186 3.428969,-3.01915 5.663584,-3.15686 2.259898,0.69729 1.268593,2.86648 0.380426,3.62246 -0.655601,0.55427 -1.561902,1.33168 -2.014003,1.7276 l -0.822005,0.71985 2.38125,0.0364 2.38125,0.0364 -1.959917,0.35758 c -1.077955,0.19667 -2.498148,0.54098 -3.155987,0.76513 -1.181666,0.40263 -1.486482,0.42381 -3.132622,0.21761 z M 58.522639,173.3426 c -0.363802,-0.0527 -1.316302,-0.24443 -2.116667,-0.42616 l -1.455208,-0.33041 2.38125,-0.13229 c 2.292203,-0.12735 4.335126,0.15667 3.909126,0.54347 -0.280717,0.25488 -1.911934,0.46213 -2.718501,0.34539 z m 4.431771,-0.006 c 0.181901,-0.0734 0.479557,-0.0734 0.661458,0 0.181901,0.0734 0.03307,0.13346 -0.330729,0.13346 -0.363802,0 -0.51263,-0.0601 -0.330729,-0.13346 z m 1.19566,-0.80187 c 0.257431,-0.0671 0.614619,-0.0627 0.79375,0.01 0.179131,0.0725 -0.03149,0.12736 -0.468056,0.12197 -0.436562,-0.005 -0.583126,-0.0647 -0.325694,-0.13178 z m 20.317298,-4.42385 c -1.853406,-2.70145 -4.94024,-20.77674 -0.49748,-18.06757 0.919885,0.43869 1.713669,0.90234 1.763966,1.03034 0.0503,0.128 1.035108,0.70718 2.188464,1.28708 1.153359,0.5799 2.540955,1.4446 3.08355,1.92156 1.82599,1.6051 3.160236,2.54786 3.344756,2.36334 0.100809,-0.10081 0.11725,-0.008 0.03654,0.20552 10.192906,14.75084 -0.575784,17.38188 -9.919796,11.25973 z m 2.540793,-13.25687 c 0.09587,-0.91874 -1.975646,-4.46519 -2.716289,-2.36949 -0.02856,0.0808 -0.05105,0.32742 0.07704,0.72761 0.12809,0.40018 0.427468,1.428 0.665286,2.28404 l 0.432396,1.55643 0.765408,-0.89498 c 0.420973,-0.49223 0.770247,-1.07887 0.77616,-1.30362 z m -32.035348,13.96146 c -0.109141,-0.10914 -0.285082,-0.19844 -0.390979,-0.19844 -0.105898,0 -0.570478,-0.43044 -1.032401,-0.95655 -2.352409,-2.75286 -2.466635,-5.80723 -3.579556,-8.83303 -0.963027,-3.01592 1.933765,-10.86228 3.499394,-10.01634 0.752011,0.52673 1.361144,1.90432 1.0877,2.4599 -0.409693,0.8324 -1.117413,5.24765 -1.253632,7.82102 -0.166248,3.14066 0.337538,6.00963 1.469381,8.36787 0.672317,1.4008 0.746259,1.90174 0.200093,1.35557 z m 29.743575,-19.91103 c -0.509323,-0.26272 -1.141132,-0.84619 -1.404022,-1.2966 -0.511818,-0.87691 -0.93568,-1.01776 -1.469155,-0.48821 -0.267298,0.26534 -0.295796,0.2261 -0.144134,-0.19843 0.379579,-1.06254 0.680903,-1.24435 1.091282,-0.65845 0.377851,0.53946 0.38535,0.53798 0.954998,-0.18754 0.315785,-0.40219 0.546981,-0.81509 0.513768,-0.91755 -0.03321,-0.10246 0.616145,0.12343 1.443018,0.50199 2.22214,0.89683 8.128672,4.64749 7.252396,7.54739 -2.985636,0.48938 -5.666931,-2.95248 -8.238151,-4.3026 z M 54.475554,124.67102 c -0.406887,-0.22062 -0.843688,-0.67438 -0.970669,-1.00837 -0.31538,-0.82951 -0.01829,-3.78877 0.416606,-4.1497 0.42653,-0.35399 2.269553,-0.79944 2.08726,-0.50449 -0.130675,0.21144 0.628221,0.64773 0.992534,0.57062 0.10914,-0.0231 0.173142,0.0473 0.142226,0.15643 -0.03092,0.10914 0.08776,0.45779 0.263735,0.77477 0.376987,0.67908 0.481748,4.30217 0.113756,3.93418 -0.06583,-0.0658 -0.292617,0.0532 -0.503968,0.26458 -0.491383,0.49139 -1.595543,0.47487 -2.54148,-0.038 z m 24.450019,-0.26109 c -0.706173,-0.89775 -0.709523,-1.69995 -0.01082,-2.58822 1.020736,-1.29766 3.164314,-0.76251 3.762971,0.93943 0.08782,0.24967 -0.102418,0.83192 -0.432232,1.32291 -0.483341,0.71955 -0.78401,0.89132 -1.674918,0.95687 -0.913929,0.0673 -1.174348,-0.0327 -1.645007,-0.63099 z"
         id="path8202"
         inkscape:connector-curvature="0"
         sodipodi:nodetypes="cccccccccccscccccccccccccccccsccccsccccccccccccccsccccccccccsscccccccccccccccscscccccsccccsscccccsccccccccccccccccccccccc" />
    </g>
  </g>
</svg>
